<svg width="375" height="819" viewBox="0 0 375 819" fill="none" xmlns="http://www.w3.org/2000/svg">
<g opacity="0.8">
<g filter="url(#filter0_d_671_18135)">
<g opacity="0.28">
<path opacity="0.6" d="M68.499 533.605L188.199 464.403V602.806L68.499 533.605Z" fill="white"/>
<path opacity="0.6" d="M188.199 464.403L68.499 533.604V395.201L188.199 464.403Z" fill="white"/>
<path opacity="0.3" d="M68.4986 672.007L-51.2012 741.209V602.806L68.4986 672.007Z" fill="white"/>
<path opacity="0.3" d="M68.499 672.007L188.199 602.806V741.209L68.499 672.007Z" fill="white"/>
<path opacity="0.8" d="M188.199 602.806L68.499 672.007V533.604L188.199 602.806Z" fill="white"/>
<path opacity="0.8" d="M-51.2012 602.806L68.4986 533.604V672.007L-51.2012 602.806Z" fill="white"/>
<path opacity="0.2" d="M-51.2012 464.403L68.4986 395.201V533.604L-51.2012 464.403Z" fill="white"/>
<path opacity="0.4" d="M68.4986 395.201L-51.2012 464.403V326L68.4986 395.201Z" fill="white"/>
<path opacity="0.2" d="M68.4986 533.605L-51.2012 602.806V464.403L68.4986 533.605Z" fill="white"/>
</g>
</g>
<g opacity="0.28">
<path opacity="0.4" d="M307.898 533.605L188.198 602.806V464.403L307.898 533.605Z" fill="white"/>
<path opacity="0.3" d="M307.898 533.605L427.598 464.403V602.806L307.898 533.605Z" fill="white"/>
<path opacity="0.3" d="M427.598 464.403L307.898 533.604V395.201L427.598 464.403Z" fill="white"/>
<path opacity="0.4" d="M188.198 464.403L307.898 395.201V533.604L188.198 464.403Z" fill="white"/>
<path opacity="0.2" d="M307.898 672.007L188.198 741.209V602.806L307.898 672.007Z" fill="white"/>
<path opacity="0.1" d="M307.898 672.007L427.598 602.806V741.209L307.898 672.007Z" fill="white"/>
<path opacity="0.5" d="M427.598 602.806L307.898 672.007V533.604L427.598 602.806Z" fill="white"/>
<path opacity="0.5" d="M188.198 602.806L307.898 533.604V672.007L188.198 602.806Z" fill="white"/>
<path opacity="0.1" d="M427.598 741.208L307.898 810.41V672.007L427.598 741.208Z" fill="white"/>
<path opacity="0.2" d="M188.198 741.208L307.898 672.007V810.41L188.198 741.208Z" fill="white"/>
</g>
</g>
<g opacity="0.8">
<g opacity="0.28">
<path opacity="0.6" d="M66.499 166.605L186.199 97.4033V235.806L66.499 166.605Z" fill="white"/>
<path opacity="0.6" d="M186.199 97.4026L66.499 166.604V28.2012L186.199 97.4026Z" fill="white"/>
<path opacity="0.3" d="M66.4986 305.007L-53.2012 374.209V235.806L66.4986 305.007Z" fill="white"/>
<path opacity="0.3" d="M66.499 305.007L186.199 235.806V374.209L66.499 305.007Z" fill="white"/>
<path opacity="0.8" d="M186.199 235.806L66.499 305.007V166.604L186.199 235.806Z" fill="white"/>
<path opacity="0.8" d="M-53.2012 235.806L66.4986 166.604V305.007L-53.2012 235.806Z" fill="white"/>
<path opacity="0.2" d="M-53.2012 97.4026L66.4986 28.2012V166.604L-53.2012 97.4026Z" fill="white"/>
<path opacity="0.4" d="M66.4986 28.2015L-53.2012 97.4029V-41L66.4986 28.2015Z" fill="white"/>
<path opacity="0.2" d="M66.4986 166.605L-53.2012 235.806V97.4033L66.4986 166.605Z" fill="white"/>
</g>
<g opacity="0.28">
<path opacity="0.4" d="M305.899 166.605L186.199 235.806V97.4033L305.899 166.605Z" fill="white"/>
<path opacity="0.3" d="M305.899 166.605L425.599 97.4033V235.806L305.899 166.605Z" fill="white"/>
<path opacity="0.3" d="M425.599 97.4026L305.899 166.604V28.2012L425.599 97.4026Z" fill="white"/>
<path opacity="0.4" d="M186.199 97.4026L305.899 28.2012V166.604L186.199 97.4026Z" fill="white"/>
<path opacity="0.2" d="M305.899 305.007L186.199 374.209V235.806L305.899 305.007Z" fill="white"/>
<path opacity="0.1" d="M305.899 305.007L425.599 235.806V374.209L305.899 305.007Z" fill="white"/>
<path opacity="0.5" d="M425.599 235.806L305.899 305.007V166.604L425.599 235.806Z" fill="white"/>
<path opacity="0.5" d="M186.199 235.806L305.899 166.604V305.007L186.199 235.806Z" fill="white"/>
<path opacity="0.1" d="M425.599 374.208L305.899 443.41V305.007L425.599 374.208Z" fill="white"/>
<path opacity="0.2" d="M186.199 374.208L305.899 305.007V443.41L186.199 374.208Z" fill="white"/>
</g>
</g>
<defs>
<filter id="filter0_d_671_18135" x="-534" y="326" width="726.199" height="492.41" filterUnits="userSpaceOnUse" color-interpolation-filters="sRGB">
<feFlood flood-opacity="0" result="BackgroundImageFix"/>
<feColorMatrix in="SourceAlpha" type="matrix" values="0 0 0 0 0 0 0 0 0 0 0 0 0 0 0 0 0 0 127 0" result="hardAlpha"/>
<feOffset dy="4"/>
<feGaussianBlur stdDeviation="2"/>
<feComposite in2="hardAlpha" operator="out"/>
<feColorMatrix type="matrix" values="0 0 0 0 0 0 0 0 0 0 0 0 0 0 0 0 0 0 0.25 0"/>
<feBlend mode="normal" in2="BackgroundImageFix" result="effect1_dropShadow_671_18135"/>
<feBlend mode="normal" in="SourceGraphic" in2="effect1_dropShadow_671_18135" result="shape"/>
</filter>
</defs>
</svg>
