<svg width="21" height="15" viewBox="0 0 21 15" fill="none" xmlns="http://www.w3.org/2000/svg">
<path d="M18.5625 8.25H1.6875C1.23995 8.25 0.810725 8.40804 0.494257 8.68934C0.17779 8.97064 0 9.35218 0 9.75V13.5C0 13.8978 0.17779 14.2794 0.494257 14.5607C0.810725 14.842 1.23995 15 1.6875 15H18.5625C19.01 15 19.4393 14.842 19.7557 14.5607C20.0722 14.2794 20.25 13.8978 20.25 13.5V9.75C20.25 9.35218 20.0722 8.97064 19.7557 8.68934C19.4393 8.40804 19.01 8.25 18.5625 8.25ZM18.5625 13.5H1.6875V9.75H18.5625V13.5ZM18.5625 0H1.6875C1.23995 0 0.810725 0.158035 0.494257 0.43934C0.17779 0.720644 0 1.10218 0 1.5V5.25C0 5.64782 0.17779 6.02936 0.494257 6.31066C0.810725 6.59196 1.23995 6.75 1.6875 6.75H18.5625C19.01 6.75 19.4393 6.59196 19.7557 6.31066C20.0722 6.02936 20.25 5.64782 20.25 5.25V1.5C20.25 1.10218 20.0722 0.720644 19.7557 0.43934C19.4393 0.158035 19.01 0 18.5625 0ZM18.5625 5.25H1.6875V1.5H18.5625V5.25Z" fill="#222222"/>
</svg>
