<svg width="21" height="21" viewBox="0 0 21 21" fill="none" xmlns="http://www.w3.org/2000/svg">
<path d="M6.47591 15.1846C6.5608 15.2484 6.65743 15.2948 6.76028 15.3213C6.86313 15.3477 6.97018 15.3535 7.0753 15.3385C7.18042 15.3235 7.28155 15.2879 7.37291 15.2338C7.46426 15.1797 7.54404 15.1081 7.60769 15.0231C8.09671 14.371 8.73083 13.8418 9.45982 13.4773C10.1888 13.1128 10.9927 12.9231 11.8077 12.9231C12.6227 12.9231 13.4266 13.1128 14.1556 13.4773C14.8846 13.8418 15.5187 14.371 16.0077 15.0231C16.0713 15.1079 16.1511 15.1794 16.2423 15.2335C16.3336 15.2875 16.4346 15.323 16.5396 15.338C16.6446 15.353 16.7516 15.3472 16.8543 15.3209C16.957 15.2946 17.0536 15.2483 17.1385 15.1846C17.2233 15.121 17.2948 15.0412 17.3488 14.95C17.4029 14.8587 17.4384 14.7577 17.4534 14.6527C17.4684 14.5477 17.4626 14.4408 17.4363 14.338C17.4099 14.2353 17.3636 14.1387 17.3 14.0538C16.5848 13.095 15.6311 12.34 14.5337 11.864C15.1351 11.3149 15.5564 10.5968 15.7424 9.80397C15.9284 9.01112 15.8704 8.18057 15.5759 7.4213C15.2815 6.66203 14.7643 6.00953 14.0924 5.54943C13.4204 5.08932 12.6251 4.84311 11.8107 4.84311C10.9964 4.84311 10.201 5.08932 9.52907 5.54943C8.85712 6.00953 8.33999 6.66203 8.04552 7.4213C7.75105 8.18057 7.69301 9.01112 7.87901 9.80397C8.06501 10.5968 8.48637 11.3149 9.08779 11.864C7.98815 12.3391 7.03226 13.0941 6.31538 14.0538C6.18675 14.2251 6.1314 14.4404 6.1615 14.6525C6.1916 14.8645 6.3047 15.0559 6.47591 15.1846ZM9.38462 8.88461C9.38462 8.40538 9.52673 7.9369 9.79298 7.53843C10.0592 7.13995 10.4377 6.82938 10.8804 6.64598C11.3232 6.46259 11.8104 6.4146 12.2804 6.5081C12.7504 6.60159 13.1822 6.83237 13.5211 7.17124C13.8599 7.51011 14.0907 7.94187 14.1842 8.4119C14.2777 8.88193 14.2297 9.36913 14.0463 9.81189C13.8629 10.2546 13.5524 10.6331 13.1539 10.8993C12.7554 11.1656 12.2869 11.3077 11.8077 11.3077C11.1651 11.3077 10.5487 11.0524 10.0943 10.598C9.6399 10.1436 9.38462 9.52726 9.38462 8.88461ZM19.0769 0H4.53846C4.11003 0 3.69916 0.170192 3.39621 0.473135C3.09327 0.776078 2.92308 1.18696 2.92308 1.61538V4.03846H1.30769C1.09348 4.03846 0.888039 4.12356 0.736568 4.27503C0.585096 4.4265 0.5 4.63194 0.5 4.84615C0.5 5.06037 0.585096 5.26581 0.736568 5.41728C0.888039 5.56875 1.09348 5.65385 1.30769 5.65385H2.92308V9.69231H1.30769C1.09348 9.69231 0.888039 9.7774 0.736568 9.92887C0.585096 10.0803 0.5 10.2858 0.5 10.5C0.5 10.7142 0.585096 10.9197 0.736568 11.0711C0.888039 11.2226 1.09348 11.3077 1.30769 11.3077H2.92308V15.3462H1.30769C1.09348 15.3462 0.888039 15.4312 0.736568 15.5827C0.585096 15.7342 0.5 15.9396 0.5 16.1538C0.5 16.3681 0.585096 16.5735 0.736568 16.725C0.888039 16.8764 1.09348 16.9615 1.30769 16.9615H2.92308V19.3846C2.92308 19.813 3.09327 20.2239 3.39621 20.5269C3.69916 20.8298 4.11003 21 4.53846 21H19.0769C19.5054 21 19.9162 20.8298 20.2192 20.5269C20.5221 20.2239 20.6923 19.813 20.6923 19.3846V1.61538C20.6923 1.18696 20.5221 0.776078 20.2192 0.473135C19.9162 0.170192 19.5054 0 19.0769 0ZM19.0769 19.3846H4.53846V1.61538H19.0769V19.3846Z" fill="#222222"/>
</svg>
