<svg width="190" height="38" viewBox="0 0 190 38" fill="none" xmlns="http://www.w3.org/2000/svg">
<g clip-path="url(#clip0_147_26863)">
<path fill-rule="evenodd" clip-rule="evenodd" d="M24.0375 10.9911C22.4907 9.95759 20.6722 9.40594 18.8119 9.40594V0C22.5325 0 26.1696 1.1033 29.2632 3.17037C32.3568 5.23744 34.7679 8.17546 36.1918 11.6129C37.6156 15.0503 37.9881 18.8328 37.2623 22.4819C36.5364 26.131 34.7448 29.483 32.1138 32.1138C29.483 34.7448 26.131 36.5364 22.4819 37.2623C18.8328 37.9881 15.0503 37.6156 11.6129 36.1918C8.17545 34.7679 5.23744 32.3568 3.17037 29.2632C1.1033 26.1696 0 22.5325 0 18.8119H9.40594C9.40594 20.6722 9.95759 22.4907 10.9911 24.0375C12.0246 25.5843 13.4937 26.7899 15.2124 27.5018C16.9311 28.2138 18.8223 28.4 20.6469 28.037C22.4714 27.6741 24.1474 26.7783 25.4629 25.4629C26.7783 24.1474 27.6741 22.4714 28.037 20.6469C28.4 18.8223 28.2138 16.9311 27.5018 15.2124C26.7899 13.4937 25.5843 12.0246 24.0375 10.9911Z" fill="white"/>
<path fill-rule="evenodd" clip-rule="evenodd" d="M9.40593 4.97097e-06C9.40593 1.23521 9.16265 2.45832 8.68995 3.59951C8.21726 4.74068 7.52442 5.77758 6.651 6.65101C5.77758 7.52443 4.74068 8.21727 3.5995 8.68996C2.45831 9.16265 1.2352 9.40594 4.11143e-07 9.40594L0 18.8119C2.47041 18.8119 4.91663 18.3253 7.199 17.3799C9.48137 16.4345 11.5552 15.0488 13.302 13.302C15.0488 11.5552 16.4345 9.48138 17.3799 7.199C18.3253 4.91663 18.8119 2.47041 18.8119 0L9.40593 4.97097e-06Z" fill="white"/>
<path d="M118.158 13.5939H113.594V28.0906H118.158V13.5939Z" fill="white"/>
<path d="M114.101 10.8794C114.578 11.3567 115.174 11.5953 115.89 11.5953C116.605 11.5953 117.192 11.3567 117.65 10.8794C118.108 10.3823 118.336 9.7857 118.336 9.08971C118.336 8.37384 118.108 7.77724 117.65 7.3C117.192 6.82273 116.605 6.58411 115.89 6.58411C115.174 6.58411 114.578 6.82273 114.101 7.3C113.643 7.77724 113.414 8.37384 113.414 9.08971C113.414 9.7857 113.643 10.3823 114.101 10.8794Z" fill="white"/>
<path d="M48.1172 28.0907V7.03162H52.8003V23.9744H62.1367V28.0907H48.1172Z" fill="white"/>
<path fill-rule="evenodd" clip-rule="evenodd" d="M70.5672 28.4187C69.0758 28.4187 67.7236 28.0906 66.5105 27.4344C65.3174 26.7583 64.3728 25.8436 63.6768 24.6901C62.9808 23.5367 62.6328 22.2442 62.6328 20.8124C62.6328 19.3806 62.9808 18.098 63.6768 16.9645C64.3728 15.831 65.3174 14.9361 66.5105 14.28C67.7036 13.6038 69.0559 13.2657 70.5672 13.2657C72.0785 13.2657 73.4307 13.5939 74.6239 14.2501C75.817 14.9063 76.7617 15.8112 77.4576 16.9645C78.1536 18.098 78.5017 19.3806 78.5017 20.8124C78.5017 22.2442 78.1536 23.5367 77.4576 24.6901C76.7617 25.8436 75.817 26.7583 74.6239 27.4344C73.4307 28.0906 72.0785 28.4187 70.5672 28.4187ZM70.5672 24.2726C71.2234 24.2726 71.8001 24.1334 72.2973 23.855C72.7944 23.5567 73.1723 23.149 73.4307 22.632C73.7091 22.0951 73.8484 21.4885 73.8484 20.8124C73.8484 20.1363 73.7091 19.5497 73.4307 19.0526C73.1523 18.5355 72.7646 18.1378 72.2674 17.8594C71.7901 17.5611 71.2234 17.412 70.5672 17.412C69.9309 17.412 69.3642 17.5611 68.867 17.8594C68.3699 18.1378 67.9821 18.5355 67.7036 19.0526C67.4252 19.5696 67.2861 20.1661 67.2861 20.8422C67.2861 21.4985 67.4252 22.0951 67.7036 22.632C67.9821 23.149 68.3699 23.5567 68.867 23.855C69.3642 24.1334 69.9309 24.2726 70.5672 24.2726Z" fill="white"/>
<path fill-rule="evenodd" clip-rule="evenodd" d="M82.1199 33.7581C83.3329 34.3148 84.7349 34.5932 86.3258 34.5932C87.8768 34.5932 89.2589 34.285 90.4719 33.6685C91.685 33.0521 92.6394 32.1971 93.3355 31.1033C94.0314 30.0096 94.3799 28.717 94.3799 27.2255V13.5939H89.9051V14.5679C89.5723 14.2878 89.1944 14.0526 88.7717 13.8623C87.9961 13.4845 87.1112 13.2955 86.117 13.2955C84.7846 13.2955 83.6014 13.6137 82.5674 14.25C81.5332 14.8665 80.718 15.7216 80.1214 16.8153C79.5247 17.8892 79.2266 19.1022 79.2266 20.4545C79.2266 21.7868 79.5247 22.9998 80.1214 24.0936C80.718 25.1873 81.5332 26.0523 82.5674 26.6887C83.6014 27.325 84.7846 27.6432 86.117 27.6432C87.0913 27.6432 87.9763 27.4543 88.7717 27.0765C89.157 26.8934 89.505 26.6777 89.8157 26.4293V27.3449C89.8157 28.3591 89.4876 29.1445 88.8313 29.7014C88.195 30.2582 87.3101 30.5365 86.1766 30.5365C85.2619 30.5365 84.4764 30.3775 83.8201 30.0593C83.1838 29.7412 82.6071 29.2738 82.09 28.6573L79.2862 31.4612C79.9821 32.4555 80.9268 33.2212 82.1199 33.7581ZM88.6225 23.1689C88.1651 23.4473 87.6184 23.5865 86.9819 23.5865C86.3456 23.5865 85.7888 23.4473 85.3115 23.1689C84.8541 22.8904 84.4962 22.5126 84.2378 22.0353C83.9792 21.5382 83.85 21.0112 83.85 20.4545C83.85 19.8579 83.9792 19.321 84.2378 18.8437C84.4962 18.3665 84.8641 17.9886 85.3414 17.7102C85.8186 17.4318 86.3655 17.2926 86.9819 17.2926C87.6184 17.2926 88.1651 17.4318 88.6225 17.7102C89.0998 17.9886 89.4577 18.3665 89.6964 18.8437C89.9549 19.321 90.0841 19.8579 90.0841 20.4545C90.0841 21.051 89.9549 21.5879 89.6964 22.0652C89.4577 22.5226 89.0998 22.8904 88.6225 23.1689Z" fill="white"/>
<path fill-rule="evenodd" clip-rule="evenodd" d="M103.982 28.4187C102.49 28.4187 101.137 28.0906 99.9249 27.4344C98.7313 26.7583 97.787 25.8436 97.0909 24.6901C96.3949 23.5367 96.0469 22.2442 96.0469 20.8124C96.0469 19.3806 96.3949 18.098 97.0909 16.9645C97.787 15.831 98.7313 14.9361 99.9249 14.28C101.118 13.6038 102.47 13.2657 103.982 13.2657C105.492 13.2657 106.845 13.5939 108.038 14.2501C109.231 14.9063 110.176 15.8112 110.872 16.9645C111.568 18.098 111.916 19.3806 111.916 20.8124C111.916 22.2442 111.568 23.5367 110.872 24.6901C110.176 25.8436 109.231 26.7583 108.038 27.4344C106.845 28.0906 105.492 28.4187 103.982 28.4187ZM103.982 24.2726C104.637 24.2726 105.214 24.1334 105.711 23.855C106.208 23.5567 106.586 23.149 106.845 22.632C107.123 22.0951 107.263 21.4885 107.263 20.8124C107.263 20.1363 107.123 19.5497 106.845 19.0526C106.566 18.5355 106.179 18.1378 105.681 17.8594C105.205 17.5611 104.637 17.412 103.982 17.412C103.345 17.412 102.778 17.5611 102.281 17.8594C101.784 18.1378 101.396 18.5355 101.118 19.0526C100.839 19.5696 100.7 20.1661 100.7 20.8422C100.7 21.4985 100.839 22.0951 101.118 22.632C101.396 23.149 101.784 23.5567 102.281 23.855C102.778 24.1334 103.345 24.2726 103.982 24.2726Z" fill="white"/>
<path fill-rule="evenodd" clip-rule="evenodd" d="M129.125 28.3889C128.151 28.3889 127.256 28.2 126.441 27.8222C126.012 27.6233 125.624 27.3859 125.278 27.1099V34.2055H120.773V13.5939H125.337V14.5944C125.668 14.3236 126.036 14.0895 126.441 13.8922C127.256 13.4944 128.151 13.2955 129.125 13.2955C130.497 13.2955 131.711 13.6237 132.764 14.28C133.838 14.9361 134.674 15.831 135.27 16.9645C135.887 18.098 136.194 19.3906 136.194 20.8422C136.194 22.2939 135.887 23.5865 135.27 24.72C134.674 25.8535 133.838 26.7483 132.764 27.4045C131.711 28.0608 130.497 28.3889 129.125 28.3889ZM128.291 24.2725C128.946 24.2725 129.513 24.1234 129.99 23.8251C130.488 23.5268 130.875 23.1191 131.154 22.6021C131.432 22.0851 131.571 21.4984 131.571 20.8422C131.571 20.1661 131.432 19.5696 131.154 19.0525C130.875 18.5355 130.488 18.1378 129.99 17.8594C129.513 17.561 128.957 17.4119 128.32 17.4119C127.684 17.4119 127.117 17.561 126.62 17.8594C126.142 18.1378 125.765 18.5355 125.487 19.0525C125.208 19.5696 125.069 20.1661 125.069 20.8422C125.069 21.4984 125.198 22.0851 125.457 22.6021C125.735 23.1191 126.123 23.5268 126.62 23.8251C127.117 24.1234 127.674 24.2725 128.291 24.2725Z" fill="white"/>
<path d="M140.665 28.1204C141.5 28.3392 142.345 28.4485 143.2 28.4485C145.01 28.4485 146.441 28.031 147.496 27.1957C148.569 26.3606 149.106 25.237 149.106 23.8251C149.106 22.9104 148.938 22.1746 148.599 21.6178C148.261 21.0411 147.824 20.5837 147.287 20.2457C146.75 19.9076 146.183 19.6391 145.586 19.4402C144.99 19.2414 144.423 19.0724 143.887 18.9332C143.349 18.794 142.912 18.6349 142.573 18.4559C142.236 18.2769 142.066 18.0383 142.066 17.74C142.066 17.4616 142.196 17.2528 142.454 17.1136C142.713 16.9545 143.1 16.8751 143.618 16.8751C144.155 16.8751 144.701 16.9844 145.258 17.2031C145.835 17.4218 146.352 17.7998 146.809 18.3366L149.404 15.7117C148.748 14.8765 147.893 14.2501 146.839 13.8325C145.805 13.3951 144.672 13.1763 143.439 13.1763C142.266 13.1763 141.242 13.3751 140.367 13.7728C139.491 14.1706 138.815 14.7174 138.338 15.4134C137.861 16.0895 137.622 16.8949 137.622 17.8296C137.622 18.7045 137.791 19.4304 138.129 20.0071C138.467 20.5638 138.905 21.0014 139.441 21.3195C139.978 21.6377 140.546 21.8863 141.142 22.0652C141.738 22.2442 142.305 22.4132 142.842 22.5723C143.379 22.7115 143.817 22.8806 144.155 23.0794C144.513 23.2584 144.692 23.5268 144.692 23.8847C144.692 24.1632 144.542 24.3818 144.244 24.541C143.966 24.7 143.558 24.7796 143.021 24.7796C142.245 24.7796 141.529 24.6404 140.874 24.362C140.217 24.0637 139.65 23.6561 139.173 23.139L136.578 25.764C137.076 26.3008 137.672 26.7782 138.368 27.1957C139.084 27.5934 139.85 27.9016 140.665 28.1204Z" fill="white"/>
<path d="M157.425 28.4187C156.094 28.4187 154.91 28.1502 153.877 27.6133C152.862 27.0565 152.067 26.3008 151.49 25.3463C150.913 24.3719 150.625 23.2584 150.625 22.0055V13.5939H155.189V21.9459C155.189 22.443 155.268 22.8706 155.428 23.2285C155.606 23.5865 155.865 23.8649 156.203 24.0637C156.541 24.2626 156.949 24.362 157.425 24.362C158.102 24.362 158.639 24.1532 159.037 23.7355C159.435 23.2981 159.633 22.7015 159.633 21.9459V13.5939H164.197V21.9757C164.197 23.2484 163.909 24.3719 163.331 25.3463C162.755 26.3008 161.96 27.0565 160.945 27.6133C159.931 28.1502 158.758 28.4187 157.425 28.4187Z" fill="white"/>
<path d="M171.033 13.5939H166.469V28.0906H171.033V19.6192C171.033 19.1221 171.132 18.7045 171.331 18.3665C171.55 18.0284 171.839 17.7698 172.196 17.5909C172.554 17.392 172.962 17.2926 173.419 17.2926C174.075 17.2926 174.622 17.5014 175.059 17.919C175.517 18.3167 175.746 18.8835 175.746 19.6192V28.0906H180.31V19.6192C180.31 19.1221 180.409 18.7045 180.608 18.3665C180.827 18.0284 181.115 17.7698 181.473 17.5909C181.831 17.392 182.239 17.2926 182.696 17.2926C183.352 17.2926 183.899 17.5014 184.336 17.919C184.793 18.3167 185.022 18.8835 185.022 19.6192V28.0906H189.587V19.1122C189.587 17.8992 189.328 16.8651 188.811 16.01C188.313 15.135 187.627 14.4688 186.753 14.0115C185.898 13.5342 184.913 13.2955 183.799 13.2955C182.666 13.2955 181.641 13.5441 180.727 14.0413C180.133 14.358 179.614 14.7668 179.169 15.2676C178.754 14.7438 178.25 14.3151 177.654 13.9816C176.859 13.5243 175.955 13.2955 174.941 13.2955C173.867 13.2955 172.902 13.5243 172.047 13.9816C171.675 14.1719 171.337 14.3998 171.033 14.6653V13.5939Z" fill="white"/>
</g>
<defs>
<clipPath id="clip0_147_26863">
<rect width="190" height="37.6237" fill="white"/>
</clipPath>
</defs>
</svg>
