<svg width="22" height="16" viewBox="0 0 22 16" fill="none" xmlns="http://www.w3.org/2000/svg">
<path d="M21.5476 5.96571C21.4062 5.76966 21.2202 5.61006 21.0049 5.5001C20.7896 5.39014 20.5513 5.33298 20.3095 5.33333H18.7857V3.80952C18.7857 3.40538 18.6252 3.0178 18.3394 2.73203C18.0536 2.44626 17.666 2.28571 17.2619 2.28571H10.659L8.0181 0.304762C7.75388 0.107793 7.43336 0.0009524 7.10381 0H2.02381C1.61967 0 1.23208 0.160544 0.946313 0.446313C0.660544 0.732083 0.5 1.11967 0.5 1.52381V15.2381C0.5 15.4402 0.580272 15.634 0.723157 15.7768C0.866042 15.9197 1.05984 16 1.2619 16H18.319C18.479 16 18.6348 15.9497 18.7646 15.8562C18.8943 15.7627 18.9913 15.6308 19.0419 15.479L21.7552 7.33905C21.8315 7.11 21.8525 6.86614 21.8164 6.62744C21.7803 6.38873 21.6882 6.16197 21.5476 5.96571ZM7.10381 1.52381L9.74476 3.50476C10.0089 3.70185 10.3295 3.80871 10.659 3.80952H17.2619V5.33333H12.16C11.859 5.33332 11.5647 5.42247 11.3143 5.58952L9.40952 6.85714H4.82571C4.5209 6.8563 4.22288 6.94724 3.97046 7.11812C3.71805 7.289 3.52292 7.53191 3.41048 7.81524L2.02381 11.2819V1.52381H7.10381ZM17.7705 14.4762H2.38762L4.82571 8.38095H9.41238C9.7134 8.38096 10.0077 8.29182 10.2581 8.12476L12.1629 6.85714H20.3095L17.7705 14.4762Z" fill="#222222"/>
</svg>
