<svg width="21" height="15" viewBox="0 0 21 15" fill="none" xmlns="http://www.w3.org/2000/svg">
<path d="M19.5 0H1.5C1.10218 0 0.720644 0.158035 0.43934 0.43934C0.158035 0.720644 0 1.10218 0 1.5V13.5C0 13.8978 0.158035 14.2794 0.43934 14.5607C0.720644 14.842 1.10218 15 1.5 15H7.18969C7.38674 15.0006 7.58196 14.9621 7.76398 14.8866C7.94601 14.8111 8.11122 14.7002 8.25 14.5603L10.5 12.3103L12.75 14.5603C12.8888 14.7002 13.054 14.8111 13.236 14.8866C13.418 14.9621 13.6133 15.0006 13.8103 15H19.5C19.8978 15 20.2794 14.842 20.5607 14.5607C20.842 14.2794 21 13.8978 21 13.5V1.5C21 1.10218 20.842 0.720644 20.5607 0.43934C20.2794 0.158035 19.8978 0 19.5 0ZM19.5 13.5H13.8103L11.5603 11.25C11.279 10.9689 10.8977 10.811 10.5 10.811C10.1023 10.811 9.72096 10.9689 9.43969 11.25L7.18969 13.5H1.5V1.5H19.5V13.5ZM6 10.5C6.59334 10.5 7.17336 10.3241 7.66671 9.99441C8.16006 9.66477 8.54458 9.19623 8.77164 8.64805C8.9987 8.09987 9.05811 7.49667 8.94236 6.91473C8.8266 6.33279 8.54088 5.79824 8.12132 5.37868C7.70176 4.95912 7.16721 4.6734 6.58527 4.55764C6.00333 4.44189 5.40013 4.5013 4.85195 4.72836C4.30377 4.95542 3.83524 5.33994 3.50559 5.83329C3.17595 6.32664 3 6.90666 3 7.5C3 8.29565 3.31607 9.05871 3.87868 9.62132C4.44129 10.1839 5.20435 10.5 6 10.5ZM6 6C6.29667 6 6.58668 6.08797 6.83336 6.2528C7.08003 6.41762 7.27229 6.65189 7.38582 6.92598C7.49935 7.20007 7.52906 7.50167 7.47118 7.79264C7.4133 8.08361 7.27044 8.35088 7.06066 8.56066C6.85088 8.77044 6.58361 8.9133 6.29264 8.97118C6.00166 9.02906 5.70006 8.99935 5.42598 8.88582C5.15189 8.77229 4.91762 8.58003 4.7528 8.33336C4.58797 8.08668 4.5 7.79667 4.5 7.5C4.5 7.10218 4.65804 6.72065 4.93934 6.43934C5.22064 6.15804 5.60218 6 6 6ZM15 10.5C15.5933 10.5 16.1734 10.3241 16.6667 9.99441C17.1601 9.66477 17.5446 9.19623 17.7716 8.64805C17.9987 8.09987 18.0581 7.49667 17.9424 6.91473C17.8266 6.33279 17.5409 5.79824 17.1213 5.37868C16.7018 4.95912 16.1672 4.6734 15.5853 4.55764C15.0033 4.44189 14.4001 4.5013 13.852 4.72836C13.3038 4.95542 12.8352 5.33994 12.5056 5.83329C12.1759 6.32664 12 6.90666 12 7.5C12 8.29565 12.3161 9.05871 12.8787 9.62132C13.4413 10.1839 14.2044 10.5 15 10.5ZM15 6C15.2967 6 15.5867 6.08797 15.8334 6.2528C16.08 6.41762 16.2723 6.65189 16.3858 6.92598C16.4994 7.20007 16.5291 7.50167 16.4712 7.79264C16.4133 8.08361 16.2704 8.35088 16.0607 8.56066C15.8509 8.77044 15.5836 8.9133 15.2926 8.97118C15.0017 9.02906 14.7001 8.99935 14.426 8.88582C14.1519 8.77229 13.9176 8.58003 13.7528 8.33336C13.588 8.08668 13.5 7.79667 13.5 7.5C13.5 7.10218 13.658 6.72065 13.9393 6.43934C14.2206 6.15804 14.6022 6 15 6Z" fill="#222222"/>
</svg>
